<mxfile host="app.diagrams.net" modified="2023-03-13T08:40:41.425Z" agent="5.0 (Windows NT 10.0; Win64; x64) AppleWebKit/537.36 (KHTML, like Gecko) Chrome/110.0.0.0 Safari/537.36" etag="Wwk7qvq_z8EhrcMtErGJ" version="21.0.6" type="github">
  <diagram name="Page-1" id="ZtmYhF9qjIUgPPEs3o9M">
    <mxGraphModel dx="880" dy="444" grid="1" gridSize="10" guides="1" tooltips="1" connect="1" arrows="1" fold="1" page="1" pageScale="1" pageWidth="850" pageHeight="1100" math="0" shadow="0">
      <root>
        <mxCell id="0" />
        <mxCell id="1" parent="0" />
        <mxCell id="iZIpDsO_VcZQwuWETnNI-1" value="&lt;h1&gt;Shell Scripting&lt;/h1&gt;&lt;div&gt;what is shell scriptin?&lt;/div&gt;" style="text;html=1;strokeColor=none;fillColor=none;spacing=5;spacingTop=-20;whiteSpace=wrap;overflow=hidden;rounded=0;fontSize=20;fontFamily=Architects Daughter;" vertex="1" parent="1">
          <mxGeometry x="50" y="30" width="570" height="120" as="geometry" />
        </mxCell>
      </root>
    </mxGraphModel>
  </diagram>
</mxfile>
